<svg xmlns="http://www.w3.org/2000/svg" viewBox="0 0 76.47 76.47"><defs><style>.cls-1{fill:#fff;}</style></defs><title>donate_food</title><g id="Layer_2" data-name="Layer 2"><g id="Layer_1-2" data-name="Layer 1"><path class="cls-1" d="M38.24,0A38.24,38.24,0,1,0,76.47,38.24,38.24,38.24,0,0,0,38.24,0Zm0,72.19A34,34,0,1,1,72.19,38.24,34,34,0,0,1,38.24,72.19Z"/><path class="cls-1" d="M38.31,41.06,25.6,54.91l-2.67-2.83,13.4-13.25-1.26-1.46c-.15-.17-.3-.14-.45,0s-.35.36-.54.52a2.29,2.29,0,0,1-3.24-.16c-2.45-2.53-4.89-5.07-7.36-7.58a5.81,5.81,0,0,1-1.56-2.35,6.76,6.76,0,0,1,0-4.24,3.08,3.08,0,0,1,.52-1,1.48,1.48,0,0,1,2.34-.12L38.3,36.23c.1.1.18.21.29.33l.25-.2,3.31-3.18a.41.41,0,0,0,.12-.52,6.63,6.63,0,0,1-.47-3.12,3.45,3.45,0,0,1,1.1-2.2L48.8,22a3,3,0,0,1,.25-.21l.8.67-.29.31L46,26.4a.55.55,0,0,0-.09.83.6.6,0,0,0,1,.1c1.22-1.25,2.43-2.5,3.65-3.74.09-.09.16-.2.25-.3l.77.58-.22.26-3.59,3.75c-.37.38-.4.75-.09,1.08s.68.28,1.08-.12L52.62,25c.29-.28.62-.26.78.05s0,.44-.17.63l-3.79,3.92a.67.67,0,0,0,.28,1.15.55.55,0,0,0,.66-.18l3.79-4c.31-.32.53-.37.76-.17s.23.49,0,.82c-1.7,2.14-3.37,4.3-5.11,6.41a4.48,4.48,0,0,1-2.45,1.3,3.78,3.78,0,0,1-3.16-.55l-3.64,4L54.07,52.28l-2.54,2.6Z"/></g></g></svg>