<svg xmlns="http://www.w3.org/2000/svg" viewBox="0 0 76.47 76.47"><defs><style>.cls-1{fill:#fff;}</style></defs><title>donate_tool</title><g id="Layer_2" data-name="Layer 2"><g id="Layer_1-2" data-name="Layer 1"><path class="cls-1" d="M38.24,0A38.24,38.24,0,1,0,76.47,38.24,38.24,38.24,0,0,0,38.24,0Zm0,72.19A34,34,0,1,1,72.19,38.24,34,34,0,0,1,38.24,72.19Z"/><path class="cls-1" d="M32,21.18l4.13,4.18c.27.28.56.53.92.87-1,.94-1.93,1.85-2.92,2.72a3.48,3.48,0,0,1-1.89,1c-.37,0-.31.31-.07.54l3.91,3.91c.43.44.85.91,1.29,1.39,1.1-1,2.12-2,3.12-3a.53.53,0,0,0,0-.4,7.22,7.22,0,0,1,5-9.3,11.08,11.08,0,0,1,2.25-.26c.33,0,.71.05.76.42a1.11,1.11,0,0,1-.27.79q-1.52,1.57-3.08,3.09a.63.63,0,0,0-.21.71c.29,1,.54,2,.85,3a.69.69,0,0,0,.41.41c1,.27,2,.52,2.95.74a.72.72,0,0,0,.56-.17c1-1,2.06-2.05,3.09-3.08.25-.25.51-.46.88-.32s.38.48.39.81a7.22,7.22,0,0,1-7.66,7.59c-.62,0-1.23-.23-1.84-.32-.16,0-.4,0-.49.05-.7.71-1.38,1.44-2.08,2.18l4.11,4.11C48.6,45.2,51,47.57,53.36,50a3.16,3.16,0,0,1-.16,4.82,3.1,3.1,0,0,1-4.2-.24c-1.77-1.73-3.52-3.5-5.28-5.26L38,43.5l-.21-.18-3.29,3.46c-2.16,2.27-4.3,4.55-6.47,6.81a3.73,3.73,0,0,1-2.85,1.33,3.1,3.1,0,0,1-2.42-4.7,6.19,6.19,0,0,1,1-1.3q5.22-5,10.46-10.05l.43-.4c-.92-.91-1.82-1.77-2.7-2.65s-1.8-1.84-2.71-2.74a.65.65,0,0,0-.53,0,6.41,6.41,0,0,0-4.18,5.35,1,1,0,0,1-.17.56.71.71,0,0,1-.56.22.82.82,0,0,1-.48-.45A8.32,8.32,0,0,1,23,34.37a10.58,10.58,0,0,1,2.24-4.76,1.32,1.32,0,0,0,.25-.38,5.27,5.27,0,0,1,2.57-3c.11-.07.25-.18.26-.28a3.47,3.47,0,0,1,1.13-2.1c.82-.91,1.69-1.79,2.54-2.68ZM24.21,51.59a1.31,1.31,0,0,0,1.28,1.35,1.32,1.32,0,0,0,.07-2.63A1.31,1.31,0,0,0,24.21,51.59Z"/></g></g></svg>