<svg xmlns="http://www.w3.org/2000/svg" viewBox="0 0 76.47 76.47"><defs><style>.cls-1{fill:#fff;}</style></defs><title>donate_money</title><g id="Layer_2" data-name="Layer 2"><g id="Layer_1-2" data-name="Layer 1"><path class="cls-1" d="M38.24,0A38.24,38.24,0,1,0,76.47,38.24,38.24,38.24,0,0,0,38.24,0Zm0,72.19A34,34,0,1,1,72.19,38.24,34,34,0,0,1,38.24,72.19Z"/><path class="cls-1" d="M48.24,44.17a6.25,6.25,0,0,1-2.26,5,11.56,11.56,0,0,1-6.3,2.47v5.13H36.83V51.8a29,29,0,0,1-4.8-.39,15.15,15.15,0,0,1-3.8-1.07V46.89a21.71,21.71,0,0,0,4.23,1.34,21.27,21.27,0,0,0,4.37.52V39q-4.53-1.44-6.35-3.34a6.78,6.78,0,0,1-1.83-4.91A5.89,5.89,0,0,1,30.9,26a10.83,10.83,0,0,1,5.93-2.25v-4h2.85v4a22.26,22.26,0,0,1,7.85,1.64l-1.15,2.89a22.32,22.32,0,0,0-6.7-1.54V36.3a25.19,25.19,0,0,1,5.2,2.16,7.22,7.22,0,0,1,2.54,2.41A6.21,6.21,0,0,1,48.24,44.17ZM32.39,30.73a3.71,3.71,0,0,0,1,2.7,9.72,9.72,0,0,0,3.45,1.92V26.79a6.37,6.37,0,0,0-3.32,1.39A3.29,3.29,0,0,0,32.39,30.73ZM44.48,44.46a3.52,3.52,0,0,0-1-2.58,10.51,10.51,0,0,0-3.82-2v8.6C42.88,48.08,44.48,46.73,44.48,44.46Z"/></g></g></svg>