<svg id="Logo" xmlns="http://www.w3.org/2000/svg" viewBox="0 0 503.84104 503.84104">
  <defs>
    <style>
      .cls-1 {
        fill: #fff;
      }
    </style>
  </defs>
  <title>instagram_logo</title>
  <g>
    <path class="cls-1" d="M256,49.47057c67.2658,0,75.23317.25654,101.79732,1.4685,24.56183,1.12079,37.90117,5.22449,46.77825,8.6744a78.05231,78.05231,0,0,1,28.966,18.84456,78.05212,78.05212,0,0,1,18.84494,28.96643c3.44988,8.877,7.55364,22.21639,8.6744,46.77786,1.212,26.56451,1.4685,34.53191,1.4685,101.79768s-.25654,75.23317-1.4685,101.79732c-1.12076,24.56183-5.22452,37.90117-8.6744,46.77825a83.427,83.427,0,0,1-47.811,47.811c-8.87708,3.44988-22.21642,7.55364-46.77825,8.6744-26.56032,1.212-34.527,1.4685-101.79732,1.4685s-75.237-.25654-101.79732-1.4685c-24.56183-1.12076-37.9012-5.22452-46.77822-8.6744a78.05141,78.05141,0,0,1-28.966-18.84456,78.05322,78.05322,0,0,1-18.84494-28.9664c-3.44991-8.87708-7.55361-22.21642-8.6744-46.77792-1.212-26.56448-1.4685-34.53185-1.4685-101.79765s.25654-75.23317,1.4685-101.79732c1.12079-24.56183,5.22449-37.9012,8.6744-46.77822A78.05178,78.05178,0,0,1,78.458,78.45841a78.05249,78.05249,0,0,1,28.96643-18.84494c8.877-3.44991,22.21639-7.55361,46.77786-8.6744,26.56451-1.212,34.53191-1.4685,101.79768-1.4685m0-45.39109c-68.41761,0-76.99654.28978-103.86643,1.5157C125.31906,6.81874,107.00684,11.07734,90.98216,17.305A123.48769,123.48769,0,0,0,46.36181,46.36181,123.48769,123.48769,0,0,0,17.305,90.98216c-6.22765,16.02468-10.48625,34.3369-11.70981,61.15141C4.36926,179.00346,4.07948,187.58219,4.07948,256c0,68.41764.28978,76.99651,1.5157,103.8664,1.22356,26.81454,5.48216,45.12673,11.70981,61.15141a123.48878,123.48878,0,0,0,29.05682,44.62035A123.48628,123.48628,0,0,0,90.98216,494.695c16.02468,6.2277,34.3369,10.48627,61.15141,11.70982C179.00346,507.631,187.58239,507.92052,256,507.92052s76.99651-.28957,103.8664-1.51571c26.81454-1.22355,45.12673-5.48212,61.15141-11.70982A128.81676,128.81676,0,0,0,494.695,421.01781c6.2277-16.02468,10.48627-34.33687,11.70982-61.15141,1.22592-26.86989,1.51571-35.44876,1.51571-103.8664s-.28979-76.99654-1.51571-103.86643c-1.22355-26.81451-5.48212-45.12673-11.70982-61.15141a123.48628,123.48628,0,0,0-29.05683-44.62035A123.48735,123.48735,0,0,0,421.01781,17.305C404.99313,11.07734,386.68094,6.81874,359.8664,5.59518,332.99651,4.36926,324.41764,4.07948,256,4.07948Z" transform="translate(-4.07948 -4.07948)"/>
    <path class="cls-1" d="M256,126.63541A129.36457,129.36457,0,1,0,385.36459,256,129.36457,129.36457,0,0,0,256,126.63541Zm0,213.338A83.97348,83.97348,0,1,1,339.97351,256,83.97351,83.97351,0,0,1,256,339.97345Z" transform="translate(-4.07948 -4.07948)"/>
    <circle class="cls-1" cx="386.39634" cy="117.44471" r="30.23046"/>
  </g>
</svg>
