<svg xmlns="http://www.w3.org/2000/svg" viewBox="0 0 607.98 534.75">
  <defs>
    <style>
      .cls-1 {
        fill: #010101;
      }

      .cls-2 {
        fill: #f7ec32;
      }

      .cls-3 {
        fill: #131111;
      }
    </style>
  </defs>
  <title>Logo Superstes</title>
  <g id="Layer_2" data-name="Layer 2">
    <g id="Layer_2-2" data-name="Layer 2">
      <g>
        <path class="cls-1" d="M277.15,15.49,4.2,488.27A31,31,0,0,0,31,534.75H577a31,31,0,0,0,26.83-46.48L330.83,15.49A31,31,0,0,0,277.15,15.49Z"/>
        <path class="cls-2" d="M296.24,45.81,40,489.61A9,9,0,0,0,47.75,503H560.23A9,9,0,0,0,568,489.61L311.78,45.79a9,9,0,0,0-15.54,0Z"/>
        <polygon class="cls-3" points="225.28 288.13 234.72 260.13 252.25 260.13 270.22 154.91 152.75 358.36 186.56 358.36 173.54 390.02 134.47 390.02 87.29 471.74 216.1 471.74 247.47 288.13 225.28 288.13"/>
        <path class="cls-3" d="M304,375.79h42.13L304,96.38l-56.6,375.36H304Zm0-143.59,12.74,106.71H291.24Z"/>
        <polygon class="cls-3" points="379.35 313.32 420.95 471.74 491.62 471.74 414.69 313.32 429.23 313.32 337.76 154.91 364.82 313.32 379.35 313.32"/>
      </g>
    </g>
  </g>
</svg>
