<svg xmlns="http://www.w3.org/2000/svg" viewBox="0 0 607.98 534.75">
  <defs>
    <style>
      .cls-1 {
        fill: #fff;
      }
    </style>
  </defs>
  <title>Logo Superstes hvid</title>
  <g id="Layer_2" data-name="Layer 2">
    <g id="Layer_2-2" data-name="Layer 2">
      <g>
        <path class="cls-1" d="M603.78,488.27,330.83,15.49a31,31,0,0,0-53.68,0L4.2,488.27A31,31,0,0,0,31,534.75H577A31,31,0,0,0,603.78,488.27ZM560.23,503H47.75A9,9,0,0,1,40,489.61L296.24,45.81a9,9,0,0,1,15.54,0L568,489.61A9,9,0,0,1,560.23,503Z"/>
        <polygon class="cls-1" points="225.28 288.13 234.72 260.13 252.25 260.13 270.22 154.91 152.75 358.36 186.56 358.36 173.54 390.02 134.47 390.02 87.29 471.74 216.1 471.74 247.47 288.13 225.28 288.13"/>
        <path class="cls-1" d="M304,375.79h42.13L304,96.38l-56.6,375.36H304Zm0-143.59,12.74,106.71H291.25Z"/>
        <polygon class="cls-1" points="379.35 313.32 420.95 471.74 491.62 471.74 414.69 313.32 429.23 313.32 337.76 154.91 364.82 313.32 379.35 313.32"/>
      </g>
    </g>
  </g>
</svg>
